<svg width="1500" height="500" viewBox="0 0 1500 500" fill="none" xmlns="http://www.w3.org/2000/svg">
<path d="M122.75 269.67C121.023 269.67 119.913 267.882 119.42 264.305C119.42 263.195 117.94 261.468 114.98 259.125C112.02 256.782 109.06 254.747 106.1 253.02L101.475 250.245C100.488 250.245 98.9467 247.963 96.85 243.4L95.925 240.995C97.8983 236.308 99.6867 233.225 101.29 231.745C114.117 223.852 121.023 219.288 122.01 218.055C123.367 214.848 124.662 213.245 125.895 213.245C130.458 213.122 132.74 212.382 132.74 211.025C133.48 208.558 134.035 207.325 134.405 207.325C135.638 207.325 141.065 203.872 150.685 196.965C160.305 190.058 165.362 186.358 165.855 185.865C166.472 185.372 166.78 185.125 166.78 185.125C166.78 185.002 166.842 184.94 166.965 184.94C167.705 184.94 168.568 186.173 169.555 188.64C170.542 191.107 171.035 193.142 171.035 194.745C171.035 196.348 170.603 198.445 169.74 201.035C169 203.502 168.63 205.228 168.63 206.215C165.917 209.792 164.005 211.58 162.895 211.58H161.97C160.49 211.58 159.442 211.888 158.825 212.505C156.975 216.945 154.878 219.165 152.535 219.165C152.288 219.042 151.98 218.98 151.61 218.98C150.007 218.98 148.835 219.967 148.095 221.94C132.308 232.177 124.415 238.282 124.415 240.255C124.415 242.722 129.657 247.593 140.14 254.87L145.69 258.755C146.307 261.098 147.417 262.27 149.02 262.27H150.5C152.473 262.27 153.645 262.517 154.015 263.01C156.112 264.86 157.16 266.525 157.16 268.005C157.16 268.745 159.38 270.472 163.82 273.185C168.26 275.898 170.665 277.44 171.035 277.81C171.405 278.18 171.59 279.598 171.59 282.065C171.59 284.532 170.912 287.862 169.555 292.055C168.322 296.125 166.965 298.16 165.485 298.16C164.992 298.16 163.388 296.803 160.675 294.09C157.962 291.253 156.297 289.835 155.68 289.835C155.187 290.082 154.878 290.205 154.755 290.205C153.645 290.205 150.377 287.738 144.95 282.805C139.647 277.872 136.317 275.405 134.96 275.405C133.727 275.405 132.925 275.22 132.555 274.85C132.185 274.357 131.815 273.74 131.445 273C131.198 272.137 130.705 271.335 129.965 270.595C129.225 269.855 127.683 269.485 125.34 269.485L122.75 269.67ZM328.253 265.97L329.918 270.41V270.595C324.738 276.145 322.087 279.105 321.963 279.475V280.4C321.963 282.62 322.703 284.47 324.183 285.95C324.43 286.197 324.553 287.06 324.553 288.54C324.553 289.897 323.813 292.98 322.333 297.79C320.977 302.477 319.99 304.82 319.373 304.82C317.277 304.82 314.748 305.622 311.788 307.225C308.828 308.828 306.855 310.123 305.868 311.11C304.142 312.837 302.168 314.255 299.948 315.365C289.835 315.365 282.682 314.625 278.488 313.145L276.268 312.405C274.295 311.418 271.335 309.075 267.388 305.375C263.565 301.675 261.653 298.962 261.653 297.235L267.388 292.425C267.388 291.192 266.648 289.835 265.168 288.355H264.613C263.627 288.355 262.332 287.8 260.728 286.69C260.728 283.36 260.358 277.008 259.618 267.635C258.878 258.262 258.2 252.897 257.583 251.54C257.583 251.293 257.398 251.17 257.028 251.17C256.165 251.17 254.932 251.972 253.328 253.575C252.712 254.562 251.848 260.482 250.738 271.335L250.183 276.7C247.223 279.66 245.743 282.003 245.743 283.73L247.408 285.58C248.642 286.813 249.258 287.8 249.258 288.54C249.258 289.527 248.025 291.377 245.558 294.09C245.188 294.46 244.942 295.94 244.818 298.53C244.818 300.997 244.757 303.402 244.633 305.745C244.633 307.965 244.387 309.075 243.893 309.075C241.797 309.075 238.282 310.432 233.348 313.145C228.538 315.858 223.852 317.215 219.288 317.215C217.808 317.215 213.122 316.043 205.228 313.7C197.335 311.48 193.388 309.568 193.388 307.965L191.168 285.21C191.168 284.963 190.49 284.408 189.133 283.545C187.9 282.682 187.283 281.88 187.283 281.14C187.283 280.277 188.517 277.995 190.983 274.295C190.983 272.075 189.072 269.67 185.248 267.08C185.495 266.34 185.618 264.428 185.618 261.345L185.248 247.84C184.508 246.36 183.275 240.687 181.548 230.82L180.808 226.01C182.905 224.653 183.953 222.495 183.953 219.535V219.165C183.953 218.425 182.782 217.5 180.438 216.39C178.095 215.28 176.923 214.417 176.923 213.8L179.698 206.03L174.333 181.98C174.333 181.363 175.752 179.945 178.588 177.725C181.425 175.505 184.878 173.347 188.948 171.25C193.142 169.03 196.595 167.92 199.308 167.92C199.802 167.92 202.885 168.598 208.558 169.955C214.232 171.188 217.068 172.052 217.068 172.545C216.945 178.342 216.883 183.398 216.883 187.715C216.883 191.908 216.945 194.313 217.068 194.93C213.245 196.78 211.333 198.692 211.333 200.665C211.333 201.528 213.122 202.7 216.698 204.18L218.363 204.92C218.61 228.23 219.165 241.92 220.028 245.99C219.535 247.347 218.795 248.58 217.808 249.69C219.288 262.023 220.337 268.56 220.953 269.3C222.927 271.027 224.222 271.89 224.838 271.89C225.455 271.89 225.887 271.767 226.133 271.52C228.97 261.407 230.388 253.698 230.388 248.395C232.115 247.162 233.04 246.113 233.163 245.25C234.643 234.15 235.383 227.428 235.383 225.085V224.345C233.533 222.125 232.608 220.09 232.608 218.24C236.062 213.307 237.973 210.038 238.343 208.435C238.837 206.708 239.207 204.303 239.453 201.22C240.07 192.71 240.563 188.393 240.933 188.27C250.307 180.5 256.905 176.615 260.728 176.615H261.283C264.12 176.985 267.512 177.972 271.458 179.575C275.528 181.178 279.968 181.98 284.778 181.98H285.333C286.443 181.733 286.998 187.838 286.998 200.295C286.998 203.378 286.937 204.982 286.813 205.105C284.47 207.942 283.298 210.347 283.298 212.32C283.298 214.17 285.148 215.218 288.848 215.465C290.945 227.922 291.993 237.665 291.993 244.695C289.897 246.052 288.848 247.347 288.848 248.58C288.848 249.69 289.588 251.108 291.068 252.835C291.438 260.605 292.117 264.983 293.103 265.97C295.57 267.697 297.05 268.56 297.543 268.56C298.16 268.56 298.592 268.375 298.838 268.005C299.085 267.635 299.393 265.662 299.763 262.085C300.133 258.508 300.442 256.597 300.688 256.35C302.045 254.87 302.785 253.822 302.908 253.205C304.142 237.418 304.943 228.908 305.313 227.675C308.397 225.332 309.938 223.728 309.938 222.865V222.68C309.938 221.077 308.705 219.412 306.238 217.685C307.718 207.448 308.89 200.295 309.753 196.225C308.89 190.305 308.458 186.05 308.458 183.46C308.458 180.87 308.643 179.39 309.013 179.02C315.797 173.963 321.223 170.757 325.293 169.4C331.953 168.66 336.825 168.29 339.908 168.29H340.833C346.137 169.647 348.788 171.003 348.788 172.36V172.545C342.868 185.495 339.908 192.895 339.908 194.745C334.975 197.458 332.508 199.802 332.508 201.775C332.508 202.515 332.94 203.07 333.803 203.44C334.79 203.687 335.53 203.933 336.023 204.18L337.318 204.92C337.688 205.043 337.812 205.167 337.688 205.29C335.962 212.69 334.975 217.993 334.728 221.2C334.605 224.407 334.173 227.675 333.433 231.005C332.693 234.212 332.015 236.863 331.398 238.96C330.782 241.057 330.103 245.003 329.363 250.8C328.623 256.473 328.253 261.53 328.253 265.97ZM382.953 238.035C382.706 237.788 382.583 236.987 382.583 235.63C382.583 234.15 383.138 231.992 384.248 229.155C384.248 228.168 383.384 227.675 381.658 227.675L378.698 228.045C376.601 229.032 374.628 231.683 372.778 236C373.148 238.343 373.333 240.687 373.333 243.03C373.333 245.25 373.024 246.668 372.408 247.285C372.531 247.902 372.716 248.642 372.963 249.505C373.333 250.368 374.381 251.54 376.108 253.02C377.834 254.5 380.054 255.24 382.768 255.24C383.631 255.24 384.124 254.438 384.248 252.835C384.371 251.232 384.494 249.382 384.618 247.285C384.741 245.188 385.049 243.893 385.543 243.4C386.159 242.783 386.468 242.228 386.468 241.735C386.468 240.625 385.296 239.392 382.953 238.035ZM414.403 281.51L415.883 295.94C415.883 296.68 415.698 297.42 415.328 298.16C415.081 298.9 413.724 300.627 411.258 303.34C408.914 306.053 407.558 307.965 407.188 309.075C406.941 310.062 404.783 311.295 400.713 312.775C396.766 314.378 394.114 315.18 392.758 315.18C391.524 315.18 390.784 315.057 390.538 314.81C390.414 314.563 390.106 313.885 389.613 312.775C388.626 309.938 387.578 308.52 386.468 308.52C384.988 308.52 383.446 309.445 381.843 311.295C380.363 313.145 379.561 314.07 379.438 314.07C372.284 314.07 365.686 312.837 359.643 310.37C357.423 309.507 356.313 308.767 356.313 308.15C356.313 306.67 352.736 302.785 345.583 296.495L341.883 293.35C340.896 292.487 340.094 288.54 339.478 281.51C338.984 274.48 338.738 268.683 338.738 264.12C338.738 259.433 338.799 257.028 338.923 256.905C339.046 256.782 339.848 256.35 341.328 255.61C342.808 254.747 343.794 254.068 344.288 253.575C344.781 253.082 345.028 252.403 345.028 251.54L344.658 249.32C342.191 246.853 340.958 245.558 340.958 245.435C340.958 244.325 342.314 240.872 345.028 235.075C347.741 229.155 350.084 225.208 352.058 223.235C366.734 214.725 377.279 210.47 383.693 210.47C396.766 210.593 404.104 211.457 405.708 213.06C411.504 221.077 414.403 228.723 414.403 236C411.443 237.357 409.531 238.405 408.668 239.145C407.928 239.885 407.558 241.057 407.558 242.66C407.558 244.263 408.298 245.065 409.778 245.065L413.848 244.325C414.218 244.325 414.403 244.448 414.403 244.695C414.403 254.685 411.504 262.578 405.708 268.375C404.104 269.978 400.034 271.52 393.498 273C387.084 274.357 383.014 275.035 381.288 275.035C380.794 275.035 379.438 274.048 377.218 272.075C374.998 270.102 373.764 269.115 373.518 269.115C373.394 269.115 372.778 269.732 371.668 270.965C370.558 272.198 370.003 273.247 370.003 274.11C371.976 280.03 374.319 284.347 377.033 287.06C378.019 288.047 380.239 288.54 383.693 288.54C394.053 288.54 401.699 286.073 406.633 281.14C408.113 279.167 409.099 278.18 409.593 278.18C410.209 278.18 411.134 278.488 412.368 279.105C413.724 279.598 414.403 280.092 414.403 280.585V281.51ZM456.679 281.695L455.939 289.465C455.939 290.205 456.063 290.575 456.309 290.575C459.639 290.575 462.908 288.91 466.114 285.58C467.224 284.47 467.903 280.77 468.149 274.48V271.15C466.916 270.04 466.299 268.252 466.299 265.785L466.484 264.12C466.484 263.997 467.101 263.565 468.334 262.825C469.691 261.962 470.369 260.79 470.369 259.31C470.369 257.83 469.136 256.227 466.669 254.5C466.793 254.253 466.854 253.637 466.854 252.65L466.299 242.845V242.29L467.594 238.22V238.035L466.854 237.11C465.128 237.11 463.463 237.727 461.859 238.96C459.763 240.317 458.221 241.797 457.234 243.4C456.248 244.88 455.754 247.47 455.754 251.17L456.309 264.305C456.309 264.305 456.248 264.798 456.124 265.785C456.741 269.362 457.049 271.52 457.049 272.26C457.049 273 456.494 273.863 455.384 274.85C454.274 275.837 453.719 276.638 453.719 277.255C453.719 277.748 454.213 278.55 455.199 279.66C456.186 280.77 456.679 281.448 456.679 281.695ZM498.304 250.985L497.934 266.525C497.934 270.225 498.119 272.26 498.489 272.63C498.859 273 499.044 274.048 499.044 275.775C499.044 277.378 498.058 280.4 496.084 284.84C494.234 289.28 492.754 291.5 491.644 291.5C491.151 291.5 490.719 291.993 490.349 292.98C488.869 296.68 487.081 299.578 484.984 301.675C483.011 303.648 479.619 306.177 474.809 309.26C469.999 312.22 467.039 313.7 465.929 313.7C463.339 313.7 459.701 311.973 455.014 308.52L452.609 306.855C452.486 306.732 452.239 306.67 451.869 306.67C451.623 306.67 449.958 307.78 446.874 310C443.791 312.22 441.941 313.33 441.324 313.33C438.981 313.33 435.219 310.308 430.039 304.265C424.859 298.222 422.269 294.522 422.269 293.165C422.269 293.042 422.454 292.61 422.824 291.87C424.181 289.033 425.599 285.58 427.079 281.51C427.573 280.03 427.819 275.59 427.819 268.19L427.264 243.585C427.264 242.968 426.894 242.043 426.154 240.81C425.414 239.577 425.044 238.652 425.044 238.035L427.634 235.075C428.251 234.458 428.559 232.238 428.559 228.415L427.449 206.4C427.449 204.92 427.573 204.18 427.819 204.18C428.683 204.18 429.669 203.44 430.779 201.96C432.013 200.48 432.629 199.062 432.629 197.705C432.629 196.348 430.903 195.177 427.449 194.19L425.784 175.505V174.765C426.154 174.148 428.374 172.668 432.444 170.325C436.514 167.858 439.166 166.625 440.399 166.625C443.853 166.625 448.416 167.735 454.089 169.955C459.886 172.175 462.784 173.778 462.784 174.765C459.948 185.865 458.529 196.102 458.529 205.475C459.023 207.695 459.269 209.607 459.269 211.21C459.269 212.813 459.023 213.862 458.529 214.355C453.473 217.562 450.944 220.522 450.944 223.235C451.068 225.948 451.561 227.305 452.424 227.305C452.794 227.305 453.719 226.565 455.199 225.085C456.803 223.482 460.256 220.953 465.559 217.5C470.986 213.923 474.871 212.135 477.214 212.135C479.558 212.135 483.196 215.342 488.129 221.755C493.063 228.168 495.529 232.917 495.529 236C492.199 238.837 490.534 241.797 490.534 244.88C490.534 245.99 491.521 246.545 493.494 246.545L497.564 246.175H497.749C498.119 246.792 498.304 248.395 498.304 250.985ZM603.503 311.85C603.133 311.85 602.516 311.11 601.653 309.63C600.79 308.027 599.68 307.225 598.323 307.225C597.09 307.225 595.671 308.212 594.068 310.185C592.588 312.158 591.416 313.145 590.553 313.145C582.29 313.145 574.89 312.467 568.353 311.11C561.816 309.877 557.376 308.582 555.033 307.225L551.333 305.19C550.593 304.45 549.73 300.627 548.743 293.72C547.88 286.69 547.448 280.338 547.448 274.665C547.448 273.802 549.915 271.767 554.848 268.56L557.253 266.895C558.486 266.032 561.57 265.23 566.503 264.49C566.626 264.49 566.688 264.983 566.688 265.97L566.503 270.04L571.313 281.88C571.93 282.25 574.088 283.113 577.788 284.47C581.611 285.703 584.448 286.32 586.298 286.32C589.628 286.32 592.958 284.347 596.288 280.4C599.741 276.33 601.468 273.493 601.468 271.89C601.468 269.053 599.803 265.353 596.473 260.79L594.808 258.385C585.805 252.712 580.378 249.875 578.528 249.875C576.308 250.492 574.828 250.8 574.088 250.8C573.471 250.8 572.546 250.06 571.313 248.58C570.203 247.1 569.648 246.113 569.648 245.62L570.943 240.07C570.943 239.083 569.648 238.22 567.058 237.48L561.878 238.405C560.521 238.405 557.438 235.322 552.628 229.155C547.941 222.988 545.598 219.288 545.598 218.055C545.598 216.822 546.4 213.738 548.003 208.805C549.73 203.872 552.32 198.013 555.773 191.23C559.226 184.323 562.865 178.958 566.688 175.135C569.278 173.408 573.718 171.867 580.008 170.51C586.421 169.153 593.205 168.475 600.358 168.475C602.455 171.805 605.045 173.47 608.128 173.47C610.841 172.237 612.198 170.078 612.198 166.995C612.198 166.625 614.233 166.44 618.303 166.44C626.443 166.44 630.513 167.488 630.513 169.585C630.636 171.682 630.698 174.518 630.698 178.095C630.698 181.672 630.575 184.447 630.328 186.42C631.685 192.34 632.363 195.855 632.363 196.965V197.15C631.623 198.63 629.588 200.48 626.258 202.7C622.928 204.797 620.831 205.845 619.968 205.845C619.228 205.845 618.858 205.66 618.858 205.29C618.858 203.07 616.453 200.11 611.643 196.41C606.956 192.587 602.64 190.675 598.693 190.675C596.35 190.675 593.266 192.71 589.443 196.78C585.62 200.727 583.708 204.057 583.708 206.77C584.325 209.853 585.62 211.395 587.593 211.395C588.703 211.395 589.998 210.717 591.478 209.36H591.663C592.773 209.36 596.411 211.518 602.578 215.835C608.868 220.028 612.198 222.68 612.568 223.79C614.048 223.543 615.281 223.42 616.268 223.42C617.378 223.42 618.18 223.543 618.673 223.79C621.633 226.133 624.716 229.34 627.923 233.41C631.13 237.357 632.98 239.947 633.473 241.18C636.31 247.717 637.728 258.262 637.728 272.815C637.728 277.255 632.98 284.902 623.483 295.755C614.11 306.485 607.45 311.85 603.503 311.85ZM673.561 239.885L672.636 250.615C672.636 253.945 673.315 256.288 674.671 257.645C674.795 257.768 674.856 258.015 674.856 258.385C674.856 258.632 674.178 259.495 672.821 260.975C671.588 262.455 670.971 263.318 670.971 263.565C671.218 265.415 671.65 266.648 672.266 267.265C672.883 267.882 673.685 268.437 674.671 268.93C677.385 270.163 678.741 271.088 678.741 271.705C678.741 273.185 678.433 274.788 677.816 276.515C677.323 278.118 677.076 279.228 677.076 279.845C677.076 280.338 677.446 281.14 678.186 282.25C678.926 283.36 679.728 283.915 680.591 283.915C682.935 283.175 684.785 282.188 686.141 280.955C689.471 281.695 693.295 282.065 697.611 282.065C702.051 282.065 705.32 281.14 707.416 279.29C709.266 278.057 710.993 277.44 712.596 277.44C713.83 280.893 714.446 283.298 714.446 284.655C713.213 288.848 712.596 291.253 712.596 291.87C712.596 292.487 710.931 295.262 707.601 300.195C704.271 305.005 701.743 308.273 700.016 310C699.03 310.617 693.911 311.295 684.661 312.035L679.851 312.405L674.856 314.995C671.526 314.995 666.408 312.528 659.501 307.595C652.718 302.538 649.326 299.393 649.326 298.16L651.176 296.68C652.41 295.693 653.026 294.768 653.026 293.905C653.026 293.042 652.78 292.24 652.286 291.5C651.793 290.76 651.361 290.39 650.991 290.39C650.745 290.39 650.436 290.575 650.066 290.945C649.82 291.192 649.203 291.315 648.216 291.315L643.776 290.205C643.776 287.738 643.221 283.36 642.111 277.07C641.001 270.657 640.446 265.045 640.446 260.235C640.446 259.125 641.433 255.178 643.406 248.395C645.503 241.612 647.106 237.665 648.216 236.555C648.34 236.555 648.401 236.493 648.401 236.37L646.736 232.115C646.736 231.375 649.203 228.538 654.136 223.605C659.193 218.672 662.585 216.205 664.311 216.205H665.976C667.703 216.205 668.751 216.02 669.121 215.65C677.878 211.58 683.428 209.545 685.771 209.545C688.115 209.545 692.616 210.408 699.276 212.135C706.06 213.738 709.451 214.972 709.451 215.835C709.081 221.262 708.896 225.517 708.896 228.6C708.896 231.56 709.02 233.41 709.266 234.15C712.72 238.837 714.446 241.427 714.446 241.92C714.446 242.29 713.275 243.4 710.931 245.25C708.588 246.977 705.813 248.703 702.606 250.43C699.523 252.157 697.056 253.02 695.206 253.02C687.313 250.183 683.366 248.21 683.366 247.1C683.613 238.713 685.34 233.472 688.546 231.375C687.19 229.155 686.141 228.045 685.401 228.045C680.715 229.772 678.186 230.82 677.816 231.19C674.61 234.52 673.006 236.74 673.006 237.85L673.561 239.885ZM741.627 205.105L747.177 205.66C748.287 205.66 749.397 205.475 750.507 205.105C752.604 207.695 753.652 209.483 753.652 210.47C752.419 214.91 751.802 220.09 751.802 226.01C752.172 228.23 753.159 229.34 754.762 229.34C763.519 216.39 769.192 209.915 771.782 209.915C777.949 210.285 783.129 212.628 787.322 216.945C788.925 221.878 789.727 226.873 789.727 231.93C789.11 240.44 788.432 245.003 787.692 245.62C785.595 246.237 784.115 246.545 783.252 246.545H782.882C778.442 243.585 774.804 242.105 771.967 242.105C769.13 242.105 765.122 244.448 759.942 249.135C754.762 253.822 752.172 257.09 752.172 258.94C752.295 262.147 752.974 263.75 754.207 263.75C755.194 263.38 756.18 263.195 757.167 263.195C758.154 263.195 758.647 263.565 758.647 264.305C758.03 272.692 757.722 279.29 757.722 284.1C757.722 288.787 757.907 291.562 758.277 292.425C757.414 294.522 756.982 295.94 756.982 296.68C756.982 297.42 757.537 299.085 758.647 301.675C759.88 304.265 760.497 305.93 760.497 306.67C760.497 307.78 757.537 309.877 751.617 312.96C745.82 316.043 741.812 317.585 739.592 317.585C737.495 317.585 733.857 317.338 728.677 316.845C723.497 316.475 720.907 315.797 720.907 314.81C720.907 314.563 721.277 312.405 722.017 308.335C722.88 304.265 723.312 300.503 723.312 297.05L725.347 295.755C726.704 294.892 727.382 293.72 727.382 292.24C727.382 290.637 725.717 288.91 722.387 287.06C723.004 284.47 723.62 276.762 724.237 263.935L724.422 257.83L721.647 245.435C721.647 245.312 722.079 244.88 722.942 244.14C723.805 243.277 724.237 242.043 724.237 240.44C724.237 238.837 723.435 235.26 721.832 229.71C720.229 224.16 719.427 220.645 719.427 219.165C719.427 217.685 719.612 216.822 719.982 216.575C720.352 216.328 721.092 215.958 722.202 215.465C723.312 214.848 724.237 214.293 724.977 213.8C725.717 213.307 726.827 212.505 728.307 211.395C729.91 210.162 731.267 209.113 732.377 208.25C735.584 206.153 738.667 205.105 741.627 205.105ZM831.968 270.965L832.523 261.715C832.523 260.852 832.399 260.42 832.153 260.42C830.549 260.42 827.774 261.407 823.828 263.38C820.004 265.353 818.093 267.08 818.093 268.56C819.079 270.163 819.573 271.458 819.573 272.445C819.573 273.308 819.388 273.925 819.018 274.295C817.538 274.912 816.798 275.898 816.798 277.255C816.798 278.488 817.599 279.968 819.203 281.695C820.929 283.298 822.348 284.1 823.458 284.1C824.568 284.1 826.479 283.052 829.193 280.955C831.906 278.735 833.263 277.132 833.263 276.145L833.078 275.775C832.338 275.035 831.968 273.432 831.968 270.965ZM862.308 263.01L863.233 277.07C863.233 278.18 863.109 278.735 862.863 278.735C858.793 281.202 856.758 284.1 856.758 287.43C856.758 288.417 857.683 289.28 859.533 290.02L862.308 291.13L863.788 300.935L867.118 307.04C867.118 307.287 866.563 307.78 865.453 308.52C862.246 310.863 859.779 312.035 858.053 312.035C855.216 312.035 852.009 313.083 848.433 315.18L846.768 316.105H846.398C844.424 316.105 840.478 314.995 834.558 312.775L831.598 311.665C831.351 311.418 831.228 310.863 831.228 310L831.783 301.305V300.565L829.378 299.825C829.008 299.825 828.329 300.503 827.343 301.86C825.739 303.957 821.854 307.04 815.688 311.11L812.543 313.145C808.966 313.145 805.389 312.035 801.813 309.815C798.359 307.595 795.708 305.498 793.858 303.525C792.008 301.428 791.083 300.257 791.083 300.01C791.083 299.763 791.329 299.455 791.823 299.085C793.056 297.975 793.673 296.803 793.673 295.57C793.673 293.35 791.453 291.685 787.013 290.575L784.978 290.02C784.978 284.47 785.471 279.105 786.458 273.925C787.568 268.745 788.616 264.983 789.603 262.64L791.268 258.94C792.748 256.967 797.434 253.883 805.328 249.69C813.221 245.497 819.634 243.4 824.568 243.4C824.938 243.4 825.554 243.832 826.418 244.695C827.404 245.435 828.206 245.805 828.823 245.805C829.563 245.805 830.426 245.497 831.413 244.88C833.509 243.77 834.558 242.845 834.558 242.105C834.558 240.255 833.694 237.85 831.968 234.89C830.611 233.533 826.233 232.485 818.833 231.745L815.133 231.375C812.666 231.375 809.213 232.3 804.773 234.15C800.333 235.877 797.989 236.74 797.743 236.74C797.496 236.74 796.879 236 795.893 234.52C794.906 233.04 794.413 231.992 794.413 231.375C794.413 230.635 795.523 228.107 797.743 223.79C800.086 219.35 801.689 216.822 802.553 216.205C804.033 215.342 808.596 213.862 816.243 211.765C823.889 209.668 829.378 208.62 832.708 208.62C838.134 212.197 842.883 214.478 846.953 215.465C851.146 216.328 855.154 218.178 858.978 221.015C862.801 223.728 864.713 226.442 864.713 229.155C864.713 229.402 864.096 230.697 862.863 233.04C861.753 235.383 861.198 237.295 861.198 238.775C861.198 240.255 861.506 241.55 862.123 242.66L863.233 244.325C863.233 250.492 863.048 254.007 862.678 254.87C861.321 257.583 860.643 259.063 860.643 259.31L862.308 261.9V263.01ZM914.355 239.885C913.862 239.885 912.32 241.488 909.73 244.695C907.263 247.778 905.722 249.875 905.105 250.985C904.612 251.972 904.365 255.733 904.365 262.27V266.525C904.365 267.142 904.92 267.943 906.03 268.93C907.263 269.917 907.88 270.657 907.88 271.15C907.88 272.507 906.647 274.418 904.18 276.885C903.687 277.378 903.44 280.153 903.44 285.21C903.44 290.267 903.687 292.795 904.18 292.795C905.907 292.795 907.695 292.302 909.545 291.315C911.395 290.205 912.875 289.095 913.985 287.985L915.465 286.32C916.082 285.703 916.76 284.223 917.5 281.88C918.24 279.413 918.61 277.748 918.61 276.885L916.575 268.19C916.575 267.697 917.007 266.525 917.87 264.675C918.857 262.702 919.35 261.098 919.35 259.865C919.35 258.508 918.795 257.398 917.685 256.535C916.575 255.548 916.02 254.685 916.02 253.945L918.795 242.66C918.795 242.043 918.178 241.427 916.945 240.81C915.835 240.193 914.972 239.885 914.355 239.885ZM877.17 258.2C877.17 256.35 875.505 254.5 872.175 252.65C872.422 250.553 872.545 247.408 872.545 243.215C872.545 232.362 871.497 224.715 869.4 220.275V220.09C869.4 219.227 871.25 217.253 874.95 214.17C878.773 210.963 881.487 209.052 883.09 208.435C884.693 207.695 888.208 207.325 893.635 207.325C899.062 207.325 901.775 207.818 901.775 208.805V208.99C900.542 213.06 899.925 219.658 899.925 228.785C901.035 230.142 901.898 230.82 902.515 230.82C911.518 218.733 917.192 212.69 919.535 212.69C922.618 212.69 926.503 213.122 931.19 213.985C936 214.725 939.268 216.02 940.995 217.87C940.995 219.597 940.933 220.892 940.81 221.755C948.703 233.472 952.65 241.982 952.65 247.285C950.183 256.165 948.95 265.353 948.95 274.85C948.95 275.343 947.717 275.898 945.25 276.515C942.907 277.132 941.735 277.81 941.735 278.55C941.735 280.153 942.413 281.695 943.77 283.175C945.25 284.655 945.99 285.58 945.99 285.95C945.99 286.32 945.435 287.43 944.325 289.28C940.872 295.323 936.863 300.627 932.3 305.19C930.327 307.04 925.27 309.26 917.13 311.85C909.113 314.563 904.92 316.105 904.55 316.475C904.303 316.845 904.18 318.695 904.18 322.025L904.365 328.315C904.365 328.685 902.7 329.918 899.37 332.015C898.383 333.002 897.89 333.988 897.89 334.975C897.89 335.962 898.075 336.763 898.445 337.38C898.815 337.997 899.123 338.305 899.37 338.305C902.7 338.305 904.365 338.552 904.365 339.045C904.365 345.335 904.92 349.898 906.03 352.735C906.03 353.845 904.242 356.497 900.665 360.69L899 362.91C898.507 363.403 897.458 363.958 895.855 364.575C891.662 366.178 889.565 367.412 889.565 368.275C889.565 368.645 887.777 368.83 884.2 368.83C880.747 368.83 876.923 368.583 872.73 368.09C868.66 367.72 866.625 367.165 866.625 366.425C866.625 364.205 867.55 360.813 869.4 356.25C871.25 351.687 872.175 349.22 872.175 348.85C872.175 348.603 871.682 348.048 870.695 347.185C869.708 346.322 869.215 345.643 869.215 345.15V344.78C871.312 339.97 872.36 329.61 872.36 313.7V305.005C872.36 302.662 872.422 301.428 872.545 301.305C874.148 300.688 874.95 298.715 874.95 295.385C874.95 294.645 874.457 289.958 873.47 281.325C872.483 272.692 871.99 266.648 871.99 263.195C871.99 263.072 872.853 262.455 874.58 261.345C876.307 260.235 877.17 259.187 877.17 258.2ZM961.101 186.605L962.581 176.43C962.581 175.813 962.457 174.765 962.211 173.285V173.1C962.211 172.36 962.951 171.312 964.431 169.955C965.911 168.475 968.377 167.057 971.831 165.7C975.407 164.22 979.354 163.48 983.671 163.48C987.494 164.22 989.406 165.022 989.406 165.885V166.07C988.789 168.537 988.481 170.757 988.481 172.73C988.481 174.703 988.666 175.875 989.036 176.245C989.406 176.615 990.146 176.985 991.256 177.355C992.366 177.725 993.044 178.033 993.291 178.28C993.661 179.883 993.846 181.548 993.846 183.275C993.846 184.878 993.661 186.235 993.291 187.345C992.921 188.455 991.194 190.49 988.111 193.45C985.151 196.41 983.177 197.89 982.191 197.89C978.244 197.89 974.544 197.088 971.091 195.485C967.637 193.882 965.109 192.278 963.506 190.675C961.902 188.948 961.101 187.592 961.101 186.605ZM991.811 257.275L990.886 287.245C990.886 293.042 991.194 296.618 991.811 297.975C994.277 303.402 995.511 306.67 995.511 307.78C995.511 308.89 995.449 309.507 995.326 309.63C995.202 309.753 993.784 310.247 991.071 311.11C982.314 314.193 977.442 315.92 976.456 316.29C975.469 316.783 974.112 317.03 972.386 317.03C970.782 317.03 967.884 316.167 963.691 314.44C959.497 312.713 957.401 311.357 957.401 310.37L959.991 287.985C959.991 287.615 960.792 286.998 962.396 286.135C963.999 285.272 964.801 284.408 964.801 283.545C964.801 282.682 963.937 281.633 962.211 280.4C960.607 279.167 959.806 278.427 959.806 278.18V277.995C960.546 275.158 960.916 271.212 960.916 266.155L959.621 244.14C959.621 243.893 960.052 243.277 960.916 242.29C961.779 241.303 962.211 239.885 962.211 238.035C962.211 236.185 961.471 233.41 959.991 229.71C958.634 225.887 957.956 223.482 957.956 222.495C957.956 221.755 960.731 219.658 966.281 216.205C971.831 212.752 975.716 211.025 977.936 211.025C989.406 211.518 995.141 212.382 995.141 213.615C995.141 215.958 994.401 220.213 992.921 226.38C991.564 232.423 990.886 236.555 990.886 238.775C990.886 240.872 991.009 242.907 991.256 244.88C987.926 246.977 986.261 249.382 986.261 252.095C987.741 253.452 989.467 254.13 991.441 254.13C991.687 254.13 991.811 255.178 991.811 257.275ZM1054.16 241.55C1054.16 240.687 1052.68 239.638 1049.72 238.405C1048 238.405 1045.28 240.995 1041.58 246.175C1038.01 251.355 1036.22 255.425 1036.22 258.385L1037.51 267.08C1038.5 269.917 1038.99 272.137 1038.99 273.74L1038.25 276.515C1035.79 278.982 1034.55 282.435 1034.55 286.875V287.06C1034.55 287.307 1035.05 287.8 1036.03 288.54C1037.02 289.28 1037.51 289.712 1037.51 289.835C1037.02 290.328 1036.77 292.487 1036.77 296.31C1036.77 300.01 1036.96 303.032 1037.33 305.375C1037.7 307.718 1037.88 309.137 1037.88 309.63C1037.88 310 1037.64 310.185 1037.14 310.185C1036.65 310.185 1034.12 311.233 1029.56 313.33C1025.12 315.55 1021.97 316.66 1020.12 316.66C1016.05 316.66 1011.8 315.797 1007.36 314.07L1003.66 313.145C1003.66 310.925 1003.91 308.088 1004.4 304.635C1005.02 301.058 1005.57 298.962 1006.06 298.345C1006.68 297.728 1006.99 296.618 1006.99 295.015C1006.99 293.412 1006.68 289.588 1006.06 283.545C1005.45 277.378 1005.14 272.137 1005.14 267.82L1008.65 265.045C1009.27 264.428 1009.58 263.565 1009.58 262.455L1009.39 260.79C1009.15 260.543 1008.41 260.05 1007.17 259.31C1005.94 258.57 1005.32 258.015 1005.32 257.645L1005.69 255.24C1006.31 251.293 1006.62 246.915 1006.62 242.105C1006.62 234.212 1005.51 227.12 1003.29 220.83L1002.18 217.685C1002.18 216.698 1005.14 214.725 1011.06 211.765C1017.1 208.805 1020.93 207.325 1022.53 207.325C1024.13 207.325 1026.6 208.003 1029.93 209.36C1033.26 210.717 1034.92 211.642 1034.92 212.135C1033.81 221.015 1033.26 226.997 1033.26 230.08C1034.49 230.82 1035.29 231.19 1035.66 231.19C1036.03 231.19 1036.22 231.067 1036.22 230.82C1041.15 222.187 1044.54 216.945 1046.39 215.095C1052.93 212.505 1059.1 211.21 1064.89 211.21C1066.62 211.21 1069.89 213.368 1074.7 217.685C1079.63 222.002 1082.04 224.715 1081.91 225.825C1081.17 229.525 1080.8 236.802 1080.8 247.655C1078.21 249.012 1076.49 250.183 1075.62 251.17C1075.25 252.527 1075.07 253.637 1075.07 254.5C1075.07 255.24 1075.25 255.61 1075.62 255.61C1079.32 255.98 1081.17 256.535 1081.17 257.275C1080.56 264.305 1080.25 269.238 1080.25 272.075C1080.25 274.788 1080.37 276.268 1080.62 276.515C1081.98 278.612 1082.65 280.462 1082.65 282.065C1080.93 283.915 1080.06 285.827 1080.06 287.8C1080.06 289.65 1080.68 292.61 1081.91 296.68C1083.15 300.627 1084.38 304.08 1085.61 307.04C1086.85 310 1087.46 311.603 1087.46 311.85C1087.46 312.22 1086.29 313.083 1083.95 314.44C1081.73 315.797 1078.83 317.092 1075.25 318.325C1071.8 319.682 1069.03 320.36 1066.93 320.36C1064.96 320.36 1062.18 319.867 1058.6 318.88C1055.03 318.017 1052.93 317.277 1052.31 316.66C1051.57 315.92 1051.02 312.097 1050.65 305.19L1050.46 301.86L1054.72 298.345C1055.09 297.975 1055.27 297.358 1055.27 296.495L1054.9 293.905C1054.16 293.165 1053.12 292.672 1051.76 292.425C1050.4 292.055 1049.72 291.747 1049.72 291.5L1050.83 273.925C1050.83 273.062 1051.14 271.89 1051.76 270.41C1052.5 268.93 1052.87 267.943 1052.87 267.45C1052.87 266.833 1052.19 265.23 1050.83 262.64C1049.6 259.927 1048.98 258.077 1048.98 257.09C1048.98 255.117 1050.28 250.985 1052.87 244.695L1054.16 241.55ZM1120.48 260.42L1119.74 264.49C1119.74 264.86 1120.17 265.538 1121.03 266.525C1122.02 267.388 1122.45 267.82 1122.33 267.82C1122.2 269.793 1122.14 272.013 1122.14 274.48C1122.14 276.947 1122.33 278.488 1122.7 279.105C1124.79 281.078 1126.21 282.065 1126.95 282.065C1127.82 282.065 1129.3 281.202 1131.39 279.475C1133.61 277.625 1134.72 276.577 1134.72 276.33L1133.61 273C1132.75 270.903 1132.32 268.622 1132.32 266.155C1132.32 265.908 1132.93 265.292 1134.17 264.305C1135.4 263.318 1136.02 262.64 1136.02 262.27C1136.02 260.913 1135.52 259.248 1134.54 257.275V257.09C1134.91 255.98 1135.09 254.5 1135.09 252.65L1134.54 240.995V240.255C1135.28 238.405 1135.65 237.11 1135.65 236.37C1135.65 235.507 1134.91 234.582 1133.43 233.595C1131.7 233.595 1129.67 234.582 1127.32 236.555C1125.1 238.528 1123.75 239.7 1123.25 240.07C1122.88 240.317 1122.7 242.105 1122.7 245.435L1123.44 255.055C1123.44 256.535 1123.31 257.398 1123.07 257.645C1121.71 259.002 1120.85 259.927 1120.48 260.42ZM1167.1 297.975L1166.91 303.155V303.71C1166.91 303.833 1166.11 304.635 1164.51 306.115C1163.03 307.595 1162.29 309.075 1162.29 310.555C1162.29 311.048 1163.03 311.788 1164.51 312.775C1166.11 313.885 1166.91 314.563 1166.91 314.81C1166.91 323.813 1165.86 331.46 1163.77 337.75C1163.03 339.97 1162.41 341.203 1161.92 341.45C1160.81 342.19 1158.4 344.287 1154.7 347.74L1152.85 349.59C1151 352.427 1147.06 355.263 1141.01 358.1L1137.87 359.395C1137.62 359.395 1136.94 358.532 1135.83 356.805C1134.85 355.202 1134.11 354.4 1133.61 354.4L1130.1 355.695C1129.23 356.558 1128.31 358.47 1127.32 361.43C1126.71 362.047 1124.05 362.417 1119.37 362.54C1115.91 362.787 1112.52 363.157 1109.19 363.65C1106.85 363.65 1104.63 362.355 1102.53 359.765C1101.67 358.285 1100.44 356.99 1098.83 355.88C1097.48 354.523 1096.12 349.96 1094.76 342.19L1094.21 338.305C1094.21 337.195 1095.44 335.037 1097.91 331.83C1100.37 328.623 1101.79 326.835 1102.16 326.465C1102.66 326.218 1103.03 326.095 1103.27 326.095L1103.83 326.28C1105.68 328.377 1108.51 330.412 1112.34 332.385C1116.28 334.482 1119.12 335.53 1120.85 335.53C1122.7 335.53 1125.6 333.618 1129.54 329.795C1133.61 325.972 1135.65 323.073 1135.65 321.1L1134.17 306.115C1134.17 305.375 1135.03 304.08 1136.76 302.23C1138.48 300.257 1139.35 298.962 1139.35 298.345C1139.35 297.605 1138.61 296.495 1137.13 295.015C1135.4 295.138 1132.81 297.112 1129.36 300.935C1125.9 304.635 1123.75 307.533 1122.88 309.63C1122.64 310.247 1119.68 310.555 1114 310.555H1111.23C1109.13 310.555 1105.43 307.595 1100.13 301.675C1094.95 295.755 1092.36 291.377 1092.36 288.54C1093.84 287.183 1094.58 285.827 1094.58 284.47C1094.58 283.113 1093.71 281.572 1091.99 279.845C1091.37 279.228 1090.75 277.317 1090.14 274.11C1089.64 270.78 1089.4 268.375 1089.4 266.895C1089.4 263.318 1090.08 257.707 1091.43 250.06L1091.99 246.36C1091.99 246.237 1092.11 246.175 1092.36 246.175H1092.91C1094.27 246.175 1095.32 245.805 1096.06 245.065L1098.65 241.18C1098.65 240.563 1097.97 239.577 1096.61 238.22C1095.26 236.74 1094.58 235.815 1094.58 235.445C1094.58 234.335 1097.41 230.82 1103.09 224.9C1108.88 218.98 1112.58 216.02 1114.19 216.02C1117.15 216.02 1121.16 215.218 1126.21 213.615C1131.27 212.012 1135.22 211.21 1138.05 211.21C1138.42 211.21 1139.16 212.567 1140.27 215.28C1141.38 217.87 1142.8 219.165 1144.53 219.165C1145.14 219.165 1146.01 218.24 1147.12 216.39C1148.35 214.417 1149.15 213.43 1149.52 213.43C1150.26 213.43 1152.67 212.628 1156.74 211.025C1160.81 209.422 1163.52 208.62 1164.88 208.62C1166.23 208.62 1167.84 209.175 1169.69 210.285C1171.66 211.395 1172.65 212.258 1172.65 212.875V213.06C1170.55 216.267 1168.7 220.707 1167.1 226.38C1165.62 232.053 1164.88 236.678 1164.88 240.255C1166.73 241.858 1167.65 243.03 1167.65 243.77V243.955C1167.16 246.175 1166.54 252.157 1165.8 261.9C1165.19 271.52 1164.88 277.81 1164.88 280.77C1164.88 283.73 1164.94 285.272 1165.06 285.395C1166.42 286.752 1167.1 290.945 1167.1 297.975ZM1218.52 162.37L1218.33 160.89C1218.21 160.273 1219.32 159.287 1221.66 157.93C1227.95 154.23 1233.2 152.072 1237.39 151.455H1237.57C1238.81 151.455 1241.21 151.948 1244.79 152.935C1248.49 153.798 1250.4 154.662 1250.52 155.525C1241.77 177.232 1237.39 189.38 1237.39 191.97V192.525C1237.39 194.498 1236.34 199.123 1234.24 206.4C1232.15 213.677 1230.61 217.87 1229.62 218.98C1228.63 219.967 1227.89 221.878 1227.4 224.715C1227.03 227.552 1226.41 231.375 1225.55 236.185C1224.81 240.995 1223.51 245.805 1221.66 250.615C1217.84 253.452 1215.93 255.548 1215.93 256.905V257.09C1216.05 257.583 1216.55 258.385 1217.41 259.495C1218.27 260.482 1218.7 261.345 1218.7 262.085C1218.83 262.702 1218.52 263.565 1217.78 264.675C1217.16 265.662 1216.24 268.498 1215 273.185C1213.77 277.872 1212.78 282.25 1212.04 286.32L1210.93 292.24C1210.93 292.487 1210.56 293.103 1209.82 294.09C1207.73 297.173 1206.68 300.01 1206.68 302.6L1207.05 307.225C1207.05 311.172 1206.37 315.057 1205.01 318.88L1204.27 321.1C1204.52 322.087 1201.5 324.06 1195.21 327.02L1192.06 328.5C1191.57 328.623 1190.52 328.685 1188.92 328.685C1187.32 328.685 1185.16 328.377 1182.44 327.76C1176.4 326.527 1173.19 325.417 1172.82 324.43V324.245C1172.82 323.628 1174.12 319.497 1176.71 311.85C1179.3 304.203 1180.78 299.023 1181.15 296.31C1183.12 295.2 1184.42 294.213 1185.03 293.35C1185.77 292.487 1186.14 291.438 1186.14 290.205L1185.96 287.43C1185.34 287.06 1184.97 286.505 1184.85 285.765V284.84L1185.96 279.66C1187.19 279.413 1188.18 278.735 1188.92 277.625C1189.66 276.515 1190.15 274.973 1190.4 273C1190.15 272.753 1190.03 272.445 1190.03 272.075V270.965C1190.03 268.252 1190.95 263.257 1192.8 255.98C1194.78 248.58 1196.75 241.92 1198.72 236L1201.68 226.935C1204.15 225.455 1205.38 223.358 1205.38 220.645L1205.2 219.35L1204.46 217.13V216.76L1207.79 203.625V202.7C1207.79 200.357 1208.41 197.458 1209.64 194.005C1210.87 190.552 1211.61 188.825 1211.86 188.825C1213.09 188.578 1214.02 188.085 1214.63 187.345C1215.37 186.605 1215.87 185.557 1216.11 184.2L1213.89 179.945V179.575C1213.89 178.958 1214.63 176.492 1216.11 172.175C1217.72 167.858 1218.52 164.59 1218.52 162.37ZM1292.36 212.69C1294.09 212.69 1295.2 214.478 1295.69 218.055C1295.69 219.165 1297.17 220.892 1300.13 223.235C1303.21 225.578 1306.24 227.613 1309.2 229.34L1313.82 232.115C1314.93 232.115 1316.41 234.397 1318.26 238.96L1319.19 241.365C1317.21 246.052 1315.42 249.135 1313.82 250.615C1300.99 258.508 1294.09 263.072 1293.1 264.305C1291.87 267.512 1290.57 269.115 1289.22 269.115C1284.65 269.238 1282.37 269.978 1282.37 271.335C1281.63 273.802 1281.08 275.035 1280.71 275.035C1279.6 275.035 1274.17 278.488 1264.43 285.395C1254.81 292.302 1249.5 296.248 1248.52 297.235L1248.15 297.42C1247.41 297.42 1246.54 296.187 1245.56 293.72C1244.57 291.253 1244.08 289.218 1244.08 287.615C1244.08 286.012 1244.45 283.977 1245.19 281.51C1246.05 278.92 1246.48 277.132 1246.48 276.145C1249.19 272.568 1251.17 270.78 1252.4 270.78H1253.33C1254.68 270.78 1255.67 270.472 1256.29 269.855C1258.14 265.415 1260.23 263.195 1262.58 263.195C1262.82 263.318 1263.13 263.38 1263.5 263.38C1265.23 263.38 1266.4 262.393 1267.02 260.42C1282.8 250.183 1290.7 244.078 1290.7 242.105C1290.7 239.638 1285.39 234.767 1274.79 227.49L1269.42 223.605C1268.93 221.262 1267.88 220.09 1266.28 220.09H1264.8C1262.7 220.09 1261.47 219.843 1261.1 219.35C1259.12 217.623 1258.14 215.958 1258.14 214.355C1258.14 213.368 1255.92 211.58 1251.48 208.99C1247.04 206.4 1244.63 204.92 1244.26 204.55C1243.89 204.18 1243.71 202.762 1243.71 200.295C1243.71 197.828 1244.32 194.56 1245.56 190.49C1246.79 186.297 1248.15 184.2 1249.63 184.2C1250.12 184.2 1251.72 185.618 1254.44 188.455C1257.15 191.168 1258.81 192.525 1259.43 192.525C1259.92 192.278 1260.23 192.155 1260.36 192.155C1261.47 192.155 1264.73 194.622 1270.16 199.555C1275.59 204.488 1278.92 206.955 1280.15 206.955C1281.38 206.955 1282.19 207.202 1282.56 207.695C1282.93 208.065 1283.23 208.682 1283.48 209.545C1283.85 210.285 1284.41 211.025 1285.15 211.765C1285.89 212.505 1287.43 212.875 1289.77 212.875L1292.36 212.69Z" fill="black"/>
</svg>
